<?xml version="1.0" standalone="no"?>
<!DOCTYPE svg PUBLIC "-//W3C//DTD SVG 20010904//EN"
 "http://www.w3.org/TR/2001/REC-SVG-20010904/DTD/svg10.dtd">
<svg version="1.0" xmlns="http://www.w3.org/2000/svg"
 width="700.000000pt" height="700.000000pt" viewBox="0 0 700.000000 700.000000"
 preserveAspectRatio="xMidYMid meet">
<metadata>
Created by potrace 1.14, written by Peter Selinger 2001-2017
</metadata>
<g transform="translate(0.000000,700.000000) scale(0.100000,-0.100000)"
fill="#000000" stroke="none">
<path d="M3238 6985 c-2 -1 -41 -6 -88 -10 -46 -3 -87 -8 -90 -10 -3 -1 -28
-5 -55 -9 -319 -37 -751 -174 -1080 -340 -203 -103 -475 -278 -608 -391 -19
-16 -62 -52 -96 -80 -92 -75 -336 -327 -427 -440 -78 -96 -234 -310 -234 -320
0 -2 -17 -31 -37 -62 -45 -70 -45 -68 -120 -213 -205 -391 -340 -844 -380
-1280 -10 -108 -10 -562 -1 -656 66 -642 293 -1235 672 -1749 28 -38 60 -81
71 -94 222 -268 451 -486 695 -661 172 -123 315 -209 485 -292 55 -27 108 -53
118 -59 42 -23 272 -110 392 -148 125 -39 302 -84 375 -96 19 -3 58 -10 85
-15 28 -6 68 -12 90 -15 22 -3 49 -7 60 -9 139 -27 661 -28 855 -1 14 2 48 6
75 10 208 28 600 129 740 190 17 7 75 32 130 55 286 120 578 296 830 499 209
169 426 394 586 606 57 76 179 253 179 261 0 3 13 24 29 47 103 151 305 608
357 807 56 217 74 290 78 315 53 323 61 409 61 675 0 179 -7 325 -20 410 -25
170 -38 251 -45 280 -5 19 -11 47 -14 62 -11 65 -60 242 -97 353 -182 539
-464 988 -877 1393 -307 301 -665 542 -1063 712 -292 125 -557 197 -939 255
-100 15 -158 17 -412 20 -152 1 -278 1 -280 0z m572 -449 c223 -25 549 -93
645 -136 11 -5 42 -16 69 -25 125 -41 336 -137 486 -224 237 -136 424 -279
625 -477 198 -197 301 -323 445 -549 61 -95 198 -355 232 -440 72 -178 141
-398 173 -555 8 -41 38 -219 41 -250 30 -269 21 -682 -21 -905 -129 -695 -457
-1282 -981 -1755 -241 -217 -565 -420 -873 -544 -99 -41 -303 -111 -347 -121
-10 -2 -66 -15 -124 -28 -58 -14 -123 -28 -145 -32 -22 -3 -51 -7 -65 -10
-148 -23 -214 -28 -434 -29 -255 -2 -369 6 -533 33 -1050 180 -1923 875 -2326
1851 -87 210 -172 520 -194 705 -2 21 -6 42 -8 45 -23 38 -24 695 -1 815 2 11
6 41 10 66 9 62 16 101 21 119 2 8 7 29 9 45 18 106 118 424 167 532 10 24 19
45 19 49 0 12 143 290 187 362 59 97 165 249 246 349 58 73 295 316 382 393
102 90 285 220 443 313 96 57 332 177 348 177 3 0 24 9 47 19 52 24 273 101
307 107 14 3 48 12 75 19 116 34 360 73 540 88 61 5 473 -1 535 -7z"/>
<path d="M3276 6363 c-1 -1 -29 -5 -62 -8 -347 -30 -737 -143 -1039 -300 -179
-94 -296 -168 -283 -180 3 -4 231 -8 505 -9 l498 -2 3 -48 c2 -27 0 -52 -5
-57 -4 -4 -37 -10 -73 -14 -89 -9 -143 -21 -196 -46 -84 -40 -144 -137 -159
-259 -3 -30 -8 -68 -10 -85 -6 -50 -7 -246 -1 -252 3 -3 441 -7 973 -9 533 -1
975 -3 985 -3 15 -1 16 -28 18 -293 2 -340 3 -364 11 -373 4 -3 30 31 59 77
229 357 516 600 836 707 116 39 126 40 279 47 71 3 131 7 134 9 17 18 -362
398 -504 506 -185 141 -422 280 -615 361 -19 9 -48 21 -65 28 -54 23 -259 91
-320 106 -33 8 -76 20 -95 25 -19 5 -51 12 -70 15 -19 3 -51 9 -70 14 -19 4
-60 11 -90 15 -30 4 -64 9 -75 11 -78 13 -557 28 -569 17z"/>
<path d="M1484 5553 c-340 -333 -584 -734 -725 -1191 -31 -100 -82 -320 -94
-405 -3 -27 -8 -58 -11 -70 -19 -103 -27 -542 -11 -687 14 -127 18 -151 48
-300 68 -340 200 -664 387 -950 64 -99 153 -223 172 -240 3 -3 30 -34 60 -70
87 -103 104 -113 171 -93 92 27 169 125 197 249 13 57 14 249 14 1859 0 1799
1 1784 -23 1861 -19 61 -55 124 -75 131 -6 2 -56 -40 -110 -94z"/>
<path d="M2470 5021 c-20 -39 -23 -214 -22 -1325 1 -949 4 -1181 14 -1187 34
-21 154 24 184 69 60 89 56 -14 52 1191 -3 1037 -5 1098 -22 1136 -38 83 -77
116 -149 125 -38 5 -50 3 -57 -9z"/>
<path d="M3319 4942 c-13 -6 -15 -66 -13 -540 1 -293 4 -535 7 -539 7 -6 71
-6 107 2 72 14 89 19 135 40 112 52 213 201 240 357 3 17 8 34 10 37 2 4 8 42
14 85 6 44 16 85 22 93 14 16 45 17 51 1 3 -7 4 -321 4 -698 l-1 -685 -30 0
c-31 0 -35 8 -49 112 -21 158 -85 306 -167 384 -75 71 -155 105 -271 115 l-68
6 0 -496 c0 -468 1 -499 19 -534 37 -73 106 -110 196 -106 326 16 365 20 493
60 191 61 341 194 434 387 73 150 71 133 17 207 -207 285 -247 595 -124 950
15 41 29 84 32 96 6 25 -80 290 -115 354 -97 178 -223 262 -437 294 -109 16
-480 29 -506 18z"/>
<path d="M5210 4914 c-256 -67 -439 -288 -514 -622 -19 -81 -19 -282 -1 -359
35 -149 128 -299 279 -448 88 -88 135 -130 281 -256 333 -287 459 -447 509
-651 26 -106 24 -309 -5 -438 -6 -25 -12 -54 -15 -64 -18 -90 -110 -308 -176
-419 -65 -109 -214 -317 -238 -332 -5 -3 -15 -16 -21 -27 -37 -70 284 240 408
393 304 376 514 828 597 1284 3 17 8 39 10 51 2 12 7 45 11 75 3 30 8 61 10
69 22 86 23 561 0 678 -1 9 -6 40 -9 67 -19 143 -66 338 -128 520 -42 124 -61
170 -77 180 -5 3 -40 -18 -78 -47 -195 -149 -235 -178 -243 -178 -11 0 -19 25
-36 125 -13 70 -68 214 -102 264 -40 58 -111 113 -170 132 -58 18 -229 20
-292 3z"/>
<path d="M4581 3008 c-11 -60 -18 -104 -26 -163 -3 -22 -7 -53 -10 -70 -3 -16
-7 -50 -10 -75 -3 -25 -7 -56 -10 -70 -3 -14 -7 -38 -9 -55 -14 -97 -19 -121
-28 -131 -6 -9 -230 -12 -851 -13 -924 -2 -1174 -5 -1183 -14 -13 -13 -11
-530 2 -587 45 -195 147 -275 385 -304 l55 -7 -1 -49 c-1 -27 -3 -52 -6 -54
-3 -3 -301 -7 -663 -10 -362 -3 -661 -7 -664 -10 -16 -16 226 -208 401 -318
340 -215 728 -358 1117 -412 25 -4 56 -9 70 -11 163 -29 663 -25 695 6 5 5 0
9 -15 10 -14 0 -32 2 -40 4 -8 1 -35 6 -60 10 -283 42 -571 209 -706 410 l-34
50 36 100 c20 55 40 109 44 120 5 11 23 61 40 110 17 50 38 106 45 125 8 19
35 91 60 160 43 118 48 128 88 153 l42 28 7 -33 c4 -18 9 -53 12 -78 23 -205
126 -423 265 -558 100 -98 241 -178 386 -221 104 -30 127 -33 280 -37 180 -4
311 21 455 87 246 114 433 319 513 564 39 119 50 195 50 345 0 204 -33 310
-146 480 -67 99 -537 570 -570 570 -3 0 -10 -24 -16 -52z"/>
</g>
</svg>
