<svg width="64.195mm" height="64.183mm" version="1.1" viewBox="0 0 64.195 64.183" xmlns="http://www.w3.org/2000/svg">
   <style>
    @media (prefers-color-scheme: dark) {
      :root {
        filter: invert(100%);
      }
    }
  </style>
 <g transform="translate(-.039447 -152.46)">
  <path d="m29.334 216.46c-1.56-0.17575-3.1909-0.44361-4.4027-0.72308-12.518-2.8869-22.172-13.081-24.337-25.697-0.3985-2.3227-0.48585-3.4989-0.44645-6.0114 0.0459-2.9232 0.26649-4.6202 0.96123-7.393 1.8996-7.5812 6.6904-14.339 13.281-18.733 4.1604-2.774 8.5887-4.418 13.885-5.1547 1.5215-0.21163 5.2875-0.25359 6.8871-0.0768 3.0408 0.33619 5.6886 0.95047 8.2286 1.9091 8.3039 3.1338 14.999 9.6394 18.359 17.84 2.871 7.007 3.1595 14.855 0.81039 22.043-3.176 9.7177-10.806 17.345-20.532 20.523-3.289 1.0749-6.508 1.5745-10.027 1.5561-1.1176-6e-3 -2.3178-0.0428-2.667-0.0822zm5.5155-4.0579c6.4976-0.64753 12.433-3.4596 17.052-8.0786 4.3061-4.3061 6.9756-9.6099 7.9269-15.75 0.22004-1.4202 0.30739-5.0483 0.15957-6.6285-0.5184-5.542-2.5864-10.597-6.1716-15.087-0.87094-1.0906-2.9785-3.1863-4.1205-4.0971-5.4848-4.3747-11.951-6.4632-19.015-6.1419-5.8817 0.26751-11.379 2.3613-16.121 6.1402-1.1887 0.94722-3.264 3.021-4.2247 4.2216-3.1153 3.8932-5.1291 8.4893-5.8988 13.462-0.26049 1.6831-0.32562 5.4057-0.12517 7.1543 0.46401 4.0478 1.7147 7.7908 3.7554 11.239 1.9744 3.3361 4.728 6.3092 7.9792 8.6151 3.7816 2.6822 8.5442 4.4646 13.204 4.9418 1.0343 0.10593 4.5699 0.1115 5.6002 9e-3zm-3.7799-1.5784c-6.0705-0.29929-11.482-2.4133-16.072-6.2784-0.42008-0.35377-0.71485-0.66102-0.67367-0.7022 0.0403-0.0403 2.8148-0.083 6.1656-0.095l6.0923-0.0217v-1.0153l-0.508-0.0594c-1.2992-0.15181-1.9663-0.39521-2.545-0.92868-0.44396-0.40924-0.73727-0.935-0.94957-1.7021-0.12486-0.45118-0.14341-0.87672-0.12767-2.929 0.0101-1.3206 0.0413-2.4731 0.0692-2.5612 0.0494-0.15568 0.30489-0.16005 9.3481-0.16005 7.3376 0 9.3146-0.0223 9.3794-0.10584 0.04515-0.0582 0.24815-1.3578 0.4511-2.888 0.22189-1.673 0.40724-2.7968 0.4649-2.819 0.18334-0.0703 4.2359 3.8719 4.9516 4.8168 1.3219 1.7452 1.7599 3.1468 1.6678 5.3371-0.10125 2.4096-0.93954 4.4088-2.5142 5.9959-2.4448 2.4643-6.272 3.3412-9.697 2.2219-3.2371-1.0579-5.2739-3.634-5.7101-7.2222-0.0536-0.44045-0.11397-0.81742-0.13425-0.8377-0.0413-0.0413-0.67102 0.37912-0.79024 0.52764-0.0422 0.0526-0.61632 1.5977-1.2758 3.4336l-1.199 3.338 0.3101 0.45024c1.2783 1.856 3.7303 3.3048 6.2848 3.7133 1.5559 0.24883 1.4373 0.21971 1.2243 0.30065-0.21144 0.0804-2.73 0.25547-3.3241 0.23112-0.20955-9e-3 -0.6096-0.0269-0.889-0.0407zm17.67-6.1024c2.2819-2.6393 3.6727-5.2961 4.1775-7.9798 0.23055-1.2259 0.2177-2.9845-0.02806-3.8388-0.56874-1.9772-1.7075-3.391-4.8863-6.0664-2.6224-2.2071-3.6656-3.3521-4.3594-4.7844-0.22555-0.46566-0.47594-1.1134-0.55642-1.4393-0.19137-0.77508-0.19073-2.3821 0.0013-3.288 0.77237-3.6433 3.067-5.8917 6.0185-5.8971 2.1057-4e-3 3.2247 1.0248 3.8019 3.495 0.11106 0.47526 0.22595 1.007 0.25531 1.1816 0.03044 0.18107 0.10179 0.3175 0.16604 0.3175 0.06196 0 0.73362-0.49683 1.4926-1.1041 1.1258-0.90073 1.4-1.084 1.4888-0.99483 0.1513 0.15184 0.72802 1.7136 1.0767 2.9157 2.1488 7.4084 0.88874 15.438-3.4392 21.916-1.1847 1.7732-2.8716 3.702-4.4189 5.0527-0.69892 0.61009-1.0975 0.86939-0.79039 0.51416zm-36.223-2.5764c-0.98844-1.0263-2.3119-2.8077-3.1558-4.2478-2.2048-3.7624-3.3934-7.9356-3.5364-12.416-0.2092-6.556 1.8839-12.788 5.9714-17.78 0.91731-1.1202 2.6971-2.8959 2.8686-2.8619 0.18481 0.0367 0.5818 0.78103 0.75892 1.4229 0.14346 0.51997 0.15174 1.4457 0.15174 16.975 0 15.323-0.01 16.464-0.14713 16.998-0.35259 1.3714-1.0691 2.1449-2.1389 2.3087-0.32368 0.0496-0.35787 0.0319-0.77247-0.39855zm10.014-8.5748c-0.0305-0.0794-0.0554-5.244-0.0554-11.477 0-12.752-0.0667-11.598 0.67086-11.598 0.70053 0 1.2199 0.49276 1.5116 1.434 0.13459 0.43441 0.14592 1.237 0.14592 10.335v9.8637l-0.254 0.508c-0.31332 0.62664-0.79618 0.95884-1.4991 1.0314-0.38746 0.04-0.47354 0.024-0.51978-0.0965zm8.7537-0.78055c-0.36771-0.1942-0.50584-0.32929-0.67733-0.66245l-0.21543-0.4185v-9.0641l0.52027 8e-3c1.0361 0.0153 2.0421 0.44829 2.729 1.1746 0.72916 0.77098 1.1559 1.8299 1.4134 3.5072l0.14444 0.94086h0.56918v-12.785h-0.249c-0.13695 0-0.26868 0.0318-0.29274 0.0708-0.02406 0.0389-0.10307 0.47035-0.17559 0.95874-0.3915 2.6366-1.2401 3.9685-2.8754 4.5127-0.4773 0.15884-1.5354 0.30851-1.7093 0.24178-0.0972-0.0373-0.11665-0.86686-0.11665-4.9871v-4.9423l0.22889-0.0574c0.12588-0.0316 1.1832-0.0153 2.3495 0.0362 3.1625 0.13966 4.1122 0.42514 5.2726 1.5848 0.71991 0.71952 1.2368 1.6956 1.5914 3.0052 0.11979 0.44238 0.27723 0.92466 0.34988 1.0717 0.12573 0.25454 0.11977 0.29935-0.12391 0.93134-1.2996 3.3706-0.96584 6.4853 0.97231 9.0736l0.46451 0.62032-0.26635 0.66077c-0.88312 2.1908-2.3455 3.6147-4.3398 4.2255-1.0106 0.30951-2.0177 0.44829-3.5779 0.49304l-1.524 0.0437zm9.4341-16.728c-0.02174-0.0582-0.04912-1.4584-0.06084-3.1115l-0.02132-3.0057-9.0367-0.0215-9.0366-0.0216-0.0549-0.21863c-0.0803-0.31984 0.0445-2.6094 0.17785-3.2626 0.30344-1.4868 1.1552-2.2249 2.7729-2.403 0.24498-0.027 0.60735-0.0688 0.80525-0.0929l0.35984-0.0439v-1.0056l-4.5085-6e-3c-2.4797-3e-3 -4.5777-0.0332-4.6622-0.0665-0.14848-0.0585-0.14848-0.065 0-0.19125 0.26592-0.22606 1.2285-0.80022 2.2333-1.332 8.068-4.2706 17.976-4.0026 25.883 0.69997 1.8216 1.0834 3.2338 2.1726 4.8353 3.7294 0.99067 0.96302 2.381 2.5182 2.381 2.6633 0 0.0366-0.52388 0.0687-1.1642 0.0713-0.96349 4e-3 -1.3074 0.0419-1.995 0.22044-3.1737 0.82414-6.2443 3.3136-8.3626 6.7801-0.24334 0.3982-0.45679 0.72401-0.47433 0.72401-0.01754 0-0.04968-0.0476-0.07142-0.10583z" style="fill:#f2f2f2;stroke-width:.084667"/>
 </g>
</svg>
